<svg xmlns="http://www.w3.org/2000/svg" viewBox="0 0 24 24" fill="currentColor">
  <path d="M10.172 6.406c.715 0 1.268-.516 1.268-1.223 0-.684-.535-1.23-1.268-1.23-.714 0-1.264.528-1.264 1.23 0 .721.53 1.223 1.264 1.223m7.699 3.125c-.266-.8-.797-1.474-1.402-2.005-.22-.192-.447-.364-.666-.522-.055-.04-.11-.08-.162-.118-.032-.025-.063-.047-.095-.072-.43-2.17-2.2-3.865-4.577-4.19a7.257 7.257 0 0 0-.882-.053H9.523c-3.26 0-6.1 2.303-6.1 6.038 0 4.032 3.004 6.224 6.373 6.224h.547c2.743 0 4.317-1.37 4.317-3.453 0-1.812-1.245-2.98-3.215-2.98-1.26 0-2.15.537-2.63 1.55l1.582.739c.185-.38.466-.846 1.048-.846.71 0 1.06.404 1.06 1.086 0 .777-.644 1.331-1.716 1.331-1.814 0-3.418-1.596-3.418-4.066 0-2.308 1.38-3.77 3.666-3.77 1.71 0 2.86.898 3.224 2.274l1.77-.47c-.21-.934-.72-1.748-1.437-2.41-.399-.36-.856-.653-1.35-.868-.645-.28-1.364-.42-2.115-.42C6.6 2.512 4 4.944 4 8.307c0 3.387 2.315 5.916 5.598 5.916 1.068 0 1.978-.232 2.747-.697.124.39.285.76.49 1.1.58.99 1.52 1.66 2.568 1.97a6.204 6.204 0 0 0 1.71.247h.001l.001-.002c2.754-.005 4.785-1.742 4.785-4.52 0-1.178-.31-2.197-.82-3.012Z" />
</svg>
